<?xml version="1.0" standalone="no"?>
<!DOCTYPE svg PUBLIC "-//W3C//DTD SVG 20010904//EN"
 "http://www.w3.org/TR/2001/REC-SVG-20010904/DTD/svg10.dtd">
<svg version="1.0" xmlns="http://www.w3.org/2000/svg"
 width="512.000000pt" height="512.000000pt" viewBox="0 0 512.000000 512.000000"
 preserveAspectRatio="xMidYMid meet">

<g transform="translate(0.000000,512.000000) scale(0.100000,-0.100000)"
fill="#000000" stroke="none">
<path d="M3070 5102 c-25 -10 -65 -31 -89 -46 -47 -30 -2097 -1502 -2286
-1641 -374 -276 -452 -389 -379 -545 14 -30 76 -127 138 -215 226 -321 358
-571 472 -893 18 -52 18 -54 1 -64 -43 -23 -125 -98 -170 -154 -63 -77 -140
-236 -168 -349 -19 -74 -23 -116 -22 -240 0 -129 4 -164 26 -250 84 -319 303
-569 585 -668 80 -28 98 -31 217 -31 117 0 138 3 210 28 156 54 303 172 389
313 31 51 45 64 70 68 17 3 179 30 359 60 1041 174 1799 325 1999 398 205 74
325 214 384 445 27 106 30 181 10 262 -23 94 -486 1392 -519 1454 -111 210
-341 315 -625 286 -48 -5 -499 -84 -1002 -174 -503 -91 -915 -164 -917 -162
-1 1 70 54 160 116 805 566 1469 1059 1635 1214 76 71 142 162 168 230 37 100
10 264 -54 328 -27 28 -224 139 -361 205 -92 44 -165 52 -231 25z m100 -43 c0
-12 12 -174 26 -361 14 -187 23 -346 20 -353 -8 -22 -534 -411 -543 -402 -2 3
-15 166 -28 364 -13 197 -26 375 -27 396 l-4 39 171 122 c224 162 247 176 308
197 67 24 77 23 77 -2z m-1161 -956 c7 -104 19 -282 26 -398 13 -196 13 -211
-3 -226 -22 -21 -511 -369 -526 -375 -8 -3 -18 101 -35 358 -12 200 -25 379
-28 399 l-5 35 274 197 c150 108 276 197 279 197 3 0 11 -84 18 -187z m-1144
-1016 c19 -142 35 -268 35 -281 0 -16 22 -42 73 -87 39 -35 133 -120 207 -190
74 -70 168 -155 208 -189 39 -35 72 -66 72 -69 0 -3 -80 -19 -178 -34 -97 -16
-188 -31 -202 -34 -24 -4 -28 2 -60 74 -19 43 -52 110 -73 148 -57 102 -198
295 -215 295 -8 0 -33 21 -56 47 -22 27 -82 92 -133 145 -54 58 -96 112 -103
133 -13 39 -7 91 13 115 22 28 130 117 247 204 l115 86 7 -53 c4 -28 24 -168
43 -310z m2981 -108 c194 -145 349 -265 346 -266 -16 -6 -614 -103 -633 -103
-20 0 -710 511 -702 520 5 6 614 119 627 116 5 -1 168 -121 362 -267z m-1406
-236 c187 -141 339 -258 337 -259 -9 -10 -619 -104 -630 -98 -22 13 -621 466
-640 484 -18 16 -13 18 100 39 65 12 199 37 298 56 99 18 183 34 188 34 4 1
160 -114 347 -256z m666 -753 c192 -39 357 -73 367 -76 10 -3 24 -16 33 -29
12 -19 13 -28 4 -47 -7 -13 -132 -143 -278 -290 -280 -281 -297 -294 -334
-250 -17 20 -218 676 -218 713 0 32 17 49 51 49 14 0 183 -32 375 -70z m-1642
-250 c169 -43 347 -174 453 -333 127 -191 189 -441 163 -661 -49 -418 -321
-696 -681 -696 -162 0 -296 47 -430 148 -152 116 -274 304 -331 512 -31 114
-33 376 -4 485 42 159 142 322 259 421 150 128 369 176 571 124z"/>
<path d="M942 1513 c-38 -55 -92 -174 -117 -257 -82 -284 -34 -581 134 -836
39 -59 168 -200 183 -200 5 0 11 7 14 15 4 10 -15 38 -53 78 -113 121 -188
254 -240 424 -24 79 -26 104 -26 238 0 121 4 165 20 225 31 112 59 179 104
253 22 37 37 72 34 77 -11 18 -33 10 -53 -17z"/>
<path d="M1360 1524 c-179 -65 -290 -264 -290 -520 0 -227 84 -439 227 -575
251 -239 548 -158 665 180 20 58 23 85 23 226 0 152 -2 164 -31 252 -43 126
-94 212 -177 299 -95 100 -184 146 -295 151 -54 2 -91 -2 -122 -13z m248 -65
c78 -35 160 -112 217 -204 175 -280 160 -659 -32 -835 -219 -200 -551 -7 -654
380 -29 110 -31 283 -5 380 46 168 152 285 279 309 62 12 124 2 195 -30z"/>
<path d="M1460 1190 c-30 -23 -84 -58 -118 -77 -58 -33 -63 -38 -59 -63 3 -14
11 -84 17 -156 6 -71 13 -134 15 -140 2 -6 18 -14 37 -17 18 -3 77 -21 131
-41 l97 -37 59 49 c32 27 84 64 115 81 61 35 60 33 46 112 -5 30 -14 98 -19
153 -5 58 -13 101 -21 106 -7 4 -33 10 -59 13 -41 5 -110 26 -171 51 -10 4
-36 -9 -70 -34z m154 -45 l71 -22 -73 -48 -73 -49 -47 13 c-26 6 -64 16 -85
22 l-39 10 78 54 c43 29 83 51 88 48 5 -4 41 -16 80 -28z m131 -175 c10 -78
12 -126 6 -128 -5 -2 -42 -26 -81 -53 -39 -28 -73 -49 -75 -47 -1 1 -9 58 -17
125 l-14 123 81 54 c44 29 81 53 82 52 1 0 9 -57 18 -126z m-317 38 c43 -12
80 -24 84 -27 5 -4 38 -228 38 -257 0 -1 -44 14 -97 32 l-98 34 -7 97 c-4 54
-9 108 -11 121 -5 27 -3 27 91 0z"/>
</g>
</svg>
